<?xml version="1.0" encoding="UTF-8" standalone="no"?>
<!DOCTYPE svg PUBLIC "-//W3C//DTD SVG 1.1//EN" "http://www.w3.org/Graphics/SVG/1.1/DTD/svg11.dtd">
<svg width="100%" height="100%" viewBox="0 0 1182 1182" version="1.1" xmlns="http://www.w3.org/2000/svg" xmlns:xlink="http://www.w3.org/1999/xlink" xml:space="preserve" xmlns:serif="http://www.serif.com/" style="fill-rule:evenodd;clip-rule:evenodd;stroke-linejoin:round;stroke-miterlimit:2;">
    <g transform="matrix(1.09756,0,0,1.09756,-57.6147,-57.6147)">
        <path d="M619.188,203.098C614.152,191.788 602.931,184.501 590.551,184.501C578.171,184.501 566.95,191.788 561.915,203.098C480.721,385.462 254.857,892.762 254.857,892.762L343.254,968.598C343.254,968.598 523.466,879.26 576.212,853.112C585.247,848.633 595.855,848.633 604.89,853.112C657.636,879.26 837.848,968.598 837.848,968.598L926.246,892.762C926.246,892.762 700.381,385.462 619.188,203.098Z" style="fill:rgb(124,169,133);"/>
        <path d="M590.551,106.291C857.817,106.291 1074.8,323.281 1074.8,590.551C1074.8,857.821 857.817,1074.81 590.551,1074.81C323.285,1074.81 106.299,857.821 106.299,590.551C106.299,323.281 323.285,106.291 590.551,106.291ZM590.551,188.976C812.183,188.976 992.119,368.916 992.119,590.551C992.119,812.186 812.183,992.126 590.551,992.126C368.92,992.126 188.983,812.186 188.983,590.551C188.983,368.916 368.92,188.976 590.551,188.976Z" style="fill:rgb(33,65,50);"/>
        <path d="M951.075,413.59L685.504,413.59C671.488,413.59 659.073,422.633 654.776,435.974C642.694,473.476 618.33,549.107 604.487,592.076C603.056,596.521 598.921,599.534 594.252,599.538C589.582,599.541 585.444,596.532 584.006,592.09C570.097,549.107 545.606,473.426 533.473,435.933C529.163,422.613 516.758,413.59 502.758,413.59C486.658,413.59 468.198,413.59 468.198,413.59C468.198,413.59 399.721,567.392 369.343,635.622C367.421,639.938 362.91,642.496 358.22,641.928C353.53,641.361 349.759,637.802 348.921,633.153C339.681,581.861 322.493,486.444 314.154,440.15C311.384,424.775 298.004,413.59 282.382,413.59L230.027,413.59C230.027,413.59 288.769,733.797 305.646,825.794C308.243,839.953 320.585,850.237 334.981,850.237C334.981,850.237 334.982,850.237 334.983,850.237C346.473,850.237 356.886,843.474 361.56,832.978C383.71,783.227 447.834,639.202 474.995,578.199C476.85,574.032 481.131,571.487 485.678,571.849C490.224,572.21 494.05,575.398 495.224,579.806C511.016,639.087 546.378,771.838 560.876,826.263C564.642,840.4 577.443,850.237 592.072,850.237L839.763,850.237C848.325,850.237 856.537,846.835 862.591,840.781C868.645,834.727 872.047,826.515 872.047,817.953L872.047,771.029L638.074,771.029C638.074,771.029 659.18,699.299 666.244,675.29C667.592,670.71 671.794,667.566 676.568,667.566C706.983,667.566 815.948,667.566 870.974,667.566C879.536,667.566 887.748,664.165 893.802,658.11C899.856,652.056 903.258,643.845 903.258,635.283C903.258,613.369 903.258,588.358 903.258,588.358L691.822,588.358C691.822,588.358 710.977,523.257 717.667,500.521C719.014,495.942 723.217,492.798 727.991,492.798L918.792,492.798C927.354,492.798 935.565,489.396 941.619,483.342C947.674,477.288 951.075,469.076 951.075,460.514L951.075,413.59Z" style="fill:rgb(33,65,50);"/>
    </g>
</svg>
